<svg width="175" height="442" viewBox="0 0 175 442" fill="none" xmlns="http://www.w3.org/2000/svg">
<g clip-path="url(#clip0_334_12672)">
<rect width="175" height="442" fill="#BF488F"/>
<path d="M221.917 -20H91.0833C87.6134 -20 84.2856 -18.6209 81.832 -16.1661C79.3784 -13.7112 78 -10.3817 78 -6.91008V38.9046C78 82.0359 98.8679 108.175 116.375 122.508C135.231 137.938 153.99 143.182 154.807 143.395C155.932 143.701 157.117 143.701 158.242 143.395C159.059 143.182 177.793 137.938 196.674 122.508C214.132 108.175 235 82.0359 235 38.9046V-6.91008C235 -10.3817 233.622 -13.7112 231.168 -16.1661C228.714 -18.6209 225.387 -20 221.917 -20ZM221.917 38.9046C221.917 69.2324 210.747 93.8496 188.718 112.061C179.128 119.962 168.222 126.11 156.5 130.223C144.931 126.181 134.16 120.142 124.675 112.38C102.384 94.1359 91.0833 69.4205 91.0833 38.9046V-6.91008H221.917V38.9046Z" fill="white" fill-opacity="0.1"/>
<rect width="46.3802" height="25.7603" transform="translate(40 28)" fill="#AA1676"/>
<path d="M52.7918 38.1813L51.9979 38.7904C51.5599 38.2201 51.0329 37.7889 50.4169 37.4969C49.8055 37.2003 49.1325 37.052 48.3979 37.052C47.5949 37.052 46.8512 37.2459 46.1668 37.6338C45.4824 38.017 44.9508 38.5349 44.5721 39.1873C44.198 39.8352 44.0109 40.5653 44.0109 41.3774C44.0109 42.6048 44.4307 43.6291 45.2702 44.4504C46.1143 45.2716 47.1774 45.6823 48.4595 45.6823C49.8694 45.6823 51.0488 45.1302 51.9979 44.026L52.7918 44.6283C52.2899 45.2671 51.6625 45.7621 50.9097 46.1135C50.1614 46.4602 49.3241 46.6336 48.3979 46.6336C46.6367 46.6336 45.2474 46.0473 44.2299 44.8747C43.3767 43.8846 42.9501 42.6892 42.9501 41.2884C42.9501 39.8147 43.4657 38.5759 44.4969 37.5722C45.5326 36.5638 46.8284 36.0596 48.3842 36.0596C49.3241 36.0596 50.1728 36.2467 50.9302 36.6208C51.6876 36.9904 52.3081 37.5106 52.7918 38.1813ZM53.8594 38.9341H54.8723L57.432 44.6694L59.9164 38.9341H60.9361L56.4944 49.1043H55.4815L56.9187 45.8192L53.8594 38.9341ZM62.2365 46.3804V36.0596H63.1878V40.2139C63.5893 39.7212 64.0387 39.3539 64.5361 39.1121C65.0334 38.8657 65.5786 38.7425 66.1718 38.7425C67.2257 38.7425 68.1246 39.1257 68.8683 39.8923C69.6166 40.6542 69.9907 41.5805 69.9907 42.6709C69.9907 43.7477 69.6143 44.6671 68.8615 45.4291C68.1086 46.191 67.2029 46.572 66.1444 46.572C65.5376 46.572 64.9878 46.442 64.495 46.1819C64.0022 45.9218 63.5665 45.5317 63.1878 45.0116V46.3804H62.2365ZM66.0691 45.6481C66.6029 45.6481 67.0957 45.518 67.5474 45.258C67.9991 44.9933 68.3573 44.6237 68.6219 44.1492C68.8911 43.6747 69.0257 43.1728 69.0257 42.6436C69.0257 42.1143 68.8911 41.6101 68.6219 41.131C68.3527 40.652 67.99 40.2801 67.5337 40.0155C67.082 39.7463 66.5984 39.6117 66.0828 39.6117C65.5581 39.6117 65.0585 39.7463 64.584 40.0155C64.114 40.2801 63.7513 40.6383 63.4958 41.09C63.2448 41.5417 63.1193 42.0504 63.1193 42.6162C63.1193 43.4785 63.4022 44.1994 63.968 44.7789C64.5383 45.3583 65.2387 45.6481 66.0691 45.6481ZM78.0119 43.9097L78.8195 44.334C78.5548 44.8542 78.2491 45.2739 77.9024 45.5933C77.5556 45.9127 77.1655 46.1568 76.732 46.3256C76.2986 46.4899 75.8081 46.572 75.2606 46.572C74.0469 46.572 73.0979 46.1751 72.4135 45.3811C71.7291 44.5827 71.3869 43.6816 71.3869 42.6778C71.3869 41.7333 71.6766 40.8915 72.2561 40.1523C72.9907 39.2124 73.9739 38.7425 75.2058 38.7425C76.4743 38.7425 77.4872 39.2238 78.2446 40.1866C78.783 40.8664 79.0567 41.7151 79.0658 42.7325H72.3724C72.3907 43.5994 72.6667 44.3112 73.2005 44.8678C73.7344 45.4199 74.3937 45.696 75.1785 45.696C75.5572 45.696 75.9245 45.6298 76.2803 45.4975C76.6408 45.3652 76.9465 45.1895 77.1974 44.9705C77.4484 44.7515 77.7199 44.3979 78.0119 43.9097ZM78.0119 41.9044C77.8841 41.3934 77.697 40.985 77.4507 40.6793C77.2088 40.3736 76.8872 40.1272 76.4857 39.9402C76.0841 39.7531 75.6621 39.6596 75.2195 39.6596C74.4895 39.6596 73.8621 39.8946 73.3374 40.3645C72.9542 40.7067 72.6644 41.22 72.4682 41.9044H78.0119ZM80.4962 38.9341H81.4749V40.0223C81.7669 39.5934 82.0749 39.274 82.3989 39.0641C82.7228 38.8497 83.0605 38.7425 83.4118 38.7425C83.6764 38.7425 83.9593 38.8269 84.2604 38.9957L83.7608 39.8033C83.5601 39.7166 83.3912 39.6733 83.2544 39.6733C82.935 39.6733 82.627 39.8056 82.3304 40.0702C82.0339 40.3303 81.808 40.7364 81.6529 41.2884C81.5342 41.7128 81.4749 42.5706 81.4749 43.8618V46.3804H80.4962V38.9341Z" fill="white"/>
<path d="M87.5365 36.3129H89.8087C91.2733 36.3129 92.3615 36.4954 93.0733 36.8604C93.7851 37.2208 94.3714 37.8094 94.8322 38.6261C95.293 39.4428 95.5235 40.3964 95.5235 41.4869C95.5235 42.2626 95.3934 42.9766 95.1333 43.6291C94.8778 44.277 94.5219 44.8154 94.0657 45.2443C93.614 45.6732 93.1235 45.9697 92.5942 46.134C92.065 46.2982 91.1479 46.3804 89.8429 46.3804H87.5365V36.3129ZM89.446 38.1607V44.5051H90.3357C91.2117 44.5051 91.8459 44.4047 92.2383 44.204C92.6353 44.0032 92.9592 43.6656 93.2102 43.1911C93.4611 42.7166 93.5866 42.1325 93.5866 41.439C93.5866 40.3713 93.2877 39.5432 92.69 38.9546C92.1516 38.4254 91.287 38.1607 90.0962 38.1607H89.446ZM104.599 43.1979H98.5964C98.6831 43.7272 98.9135 44.1492 99.2876 44.4641C99.6663 44.7743 100.148 44.9294 100.732 44.9294C101.43 44.9294 102.03 44.6853 102.532 44.1971L104.106 44.9363C103.713 45.4929 103.243 45.9059 102.696 46.1751C102.148 46.4397 101.498 46.572 100.745 46.572C99.5774 46.572 98.6261 46.2047 97.8915 45.4701C97.1569 44.731 96.7896 43.807 96.7896 42.6983C96.7896 41.5622 97.1546 40.62 97.8846 39.8717C98.6192 39.1189 99.5386 38.7425 100.643 38.7425C101.815 38.7425 102.769 39.1189 103.504 39.8717C104.238 40.62 104.605 41.6101 104.605 42.842L104.599 43.1979ZM102.723 41.7265C102.6 41.3113 102.356 40.9736 101.991 40.7135C101.631 40.4535 101.211 40.3234 100.732 40.3234C100.212 40.3234 99.7553 40.4694 99.3629 40.7615C99.1165 40.944 98.8884 41.2656 98.6785 41.7265H102.723ZM106.104 38.9341H107.98V39.7896C108.299 39.4383 108.653 39.1759 109.04 39.0026C109.433 38.8292 109.859 38.7425 110.32 38.7425C110.786 38.7425 111.205 38.8565 111.579 39.0847C111.954 39.3128 112.255 39.6459 112.483 40.0839C112.779 39.6459 113.142 39.3128 113.571 39.0847C114.005 38.8565 114.477 38.7425 114.988 38.7425C115.517 38.7425 115.982 38.8657 116.384 39.1121C116.785 39.3584 117.073 39.6801 117.246 40.0771C117.424 40.474 117.513 41.1196 117.513 42.0139V46.3804H115.631V42.6025C115.631 41.7584 115.526 41.1881 115.316 40.8915C115.106 40.5904 114.792 40.4398 114.372 40.4398C114.052 40.4398 113.765 40.531 113.509 40.7135C113.259 40.8961 113.071 41.1493 112.948 41.4732C112.825 41.7926 112.763 42.3082 112.763 43.02V46.3804H110.881V42.7736C110.881 42.1074 110.831 41.6261 110.731 41.3295C110.635 41.0284 110.489 40.8048 110.293 40.6588C110.097 40.5128 109.859 40.4398 109.581 40.4398C109.271 40.4398 108.988 40.5333 108.732 40.7204C108.481 40.9029 108.292 41.1607 108.164 41.4938C108.041 41.8268 107.98 42.3515 107.98 43.0679V46.3804H106.104V38.9341ZM120.032 35.868C120.36 35.868 120.641 35.9866 120.874 36.2239C121.111 36.4611 121.229 36.7486 121.229 37.0862C121.229 37.4193 121.113 37.7045 120.88 37.9417C120.648 38.1744 120.369 38.2908 120.045 38.2908C119.712 38.2908 119.427 38.1721 119.19 37.9349C118.957 37.6931 118.841 37.4011 118.841 37.0589C118.841 36.7303 118.957 36.4497 119.19 36.217C119.423 35.9844 119.703 35.868 120.032 35.868ZM119.094 38.9341H120.969V46.3804H119.094V38.9341ZM128.169 38.9341H130.031V46.3804H128.169V45.5933C127.804 45.9401 127.437 46.191 127.067 46.3462C126.702 46.4967 126.305 46.572 125.877 46.572C124.914 46.572 124.081 46.2001 123.378 45.4564C122.676 44.7082 122.325 43.7797 122.325 42.6709C122.325 41.5211 122.664 40.5789 123.344 39.8444C124.024 39.1098 124.85 38.7425 125.822 38.7425C126.269 38.7425 126.689 38.8269 127.081 38.9957C127.473 39.1645 127.836 39.4178 128.169 39.7554V38.9341ZM126.205 40.4672C125.626 40.4672 125.144 40.6725 124.761 41.0831C124.378 41.4892 124.186 42.0116 124.186 42.6504C124.186 43.2937 124.38 43.823 124.768 44.2382C125.16 44.6534 125.642 44.861 126.212 44.861C126.8 44.861 127.289 44.658 127.677 44.2519C128.064 43.8413 128.258 43.3051 128.258 42.6436C128.258 41.9957 128.064 41.4709 127.677 41.0694C127.289 40.6679 126.798 40.4672 126.205 40.4672Z" fill="white"/>
<path d="M39.2984 109.24C37.2718 109.24 35.5384 108.527 34.0984 107.1C32.6718 105.66 31.9584 103.927 31.9584 101.9C31.9584 99.8733 32.6718 98.1467 34.0984 96.72C35.5384 95.28 37.2718 94.56 39.2984 94.56C40.7518 94.56 42.0651 94.9133 43.2384 95.62C44.4118 96.3267 45.3118 97.2667 45.9384 98.44L43.1384 99.96C42.2851 98.4133 41.0051 97.64 39.2984 97.64C38.1518 97.64 37.1718 98.06 36.3584 98.9C35.5584 99.74 35.1584 100.74 35.1584 101.9C35.1584 103.06 35.5584 104.06 36.3584 104.9C37.1718 105.74 38.1518 106.16 39.2984 106.16C41.0051 106.16 42.2851 105.387 43.1384 103.84L45.9384 105.36C45.3118 106.533 44.4118 107.473 43.2384 108.18C42.0651 108.887 40.7518 109.24 39.2984 109.24ZM52.2575 109.22C50.7508 109.22 49.4842 108.747 48.4575 107.8C47.4442 106.84 46.9375 105.573 46.9375 104C46.9375 102.507 47.4375 101.267 48.4375 100.28C49.4375 99.28 50.6908 98.78 52.1975 98.78C53.5975 98.78 54.7775 99.2067 55.7375 100.06C56.6975 100.913 57.1775 102.113 57.1775 103.66C57.1775 104.047 57.1575 104.4 57.1175 104.72H49.8575C49.9375 105.293 50.2108 105.733 50.6775 106.04C51.1442 106.333 51.6842 106.48 52.2975 106.48C52.8442 106.48 53.3308 106.373 53.7575 106.16C54.1842 105.933 54.5042 105.66 54.7175 105.34L56.9575 107.02C56.4775 107.7 55.8308 108.24 55.0175 108.64C54.2042 109.027 53.2842 109.22 52.2575 109.22ZM49.9375 102.74H54.1775C54.0575 102.247 53.8042 101.873 53.4175 101.62C53.0308 101.367 52.5975 101.24 52.1175 101.24C51.6108 101.24 51.1508 101.367 50.7375 101.62C50.3242 101.86 50.0575 102.233 49.9375 102.74ZM59.0805 109V99H62.1005V100.12C62.2605 99.76 62.5471 99.4667 62.9605 99.24C63.3738 99 63.8271 98.88 64.3205 98.88C64.7738 98.88 65.1805 98.9467 65.5405 99.08L65.0805 101.9C64.9738 101.82 64.6938 101.78 64.2405 101.78C63.2405 101.78 62.5271 102.08 62.1005 102.68V109H59.0805ZM72.4716 109.12C71.2316 109.12 70.2382 108.8 69.4916 108.16C68.7582 107.52 68.3916 106.58 68.3916 105.34V101.62H65.9916V99H68.3916V95.96H71.4116V99H74.4116V101.62H71.4116V104.72C71.4116 105.307 71.5316 105.733 71.7716 106C72.0116 106.253 72.3916 106.38 72.9116 106.38C73.4182 106.38 73.8716 106.273 74.2716 106.06L75.1716 108.52C74.9182 108.667 74.5249 108.807 73.9916 108.94C73.4582 109.06 72.9516 109.12 72.4716 109.12ZM78.0023 98.04C77.4957 98.04 77.0557 97.86 76.6823 97.5C76.309 97.1267 76.1223 96.68 76.1223 96.16C76.1223 95.64 76.309 95.2 76.6823 94.84C77.0557 94.4667 77.4957 94.28 78.0023 94.28C78.5357 94.28 78.9823 94.4667 79.3423 94.84C79.7157 95.2 79.9023 95.64 79.9023 96.16C79.9023 96.68 79.7157 97.1267 79.3423 97.5C78.9823 97.86 78.5357 98.04 78.0023 98.04ZM76.5023 109V99H79.5223V109H76.5023ZM92.8701 98.04C92.3635 98.04 91.9235 97.86 91.5501 97.5C91.1768 97.1267 90.9901 96.68 90.9901 96.16C90.9901 95.64 91.1768 95.2 91.5501 94.84C91.9235 94.4667 92.3635 94.28 92.8701 94.28C93.4035 94.28 93.8502 94.4667 94.2102 94.84C94.5835 95.2 94.7702 95.64 94.7702 96.16C94.7702 96.68 94.5835 97.1267 94.2102 97.5C93.8502 97.86 93.4035 98.04 92.8701 98.04ZM91.3701 109V99H94.3902V109H91.3701ZM83.4901 109V101.62H81.0901V99H83.4901V98.44C83.4901 97.2667 83.8368 96.28 84.5301 95.48C85.2368 94.68 86.2435 94.28 87.5501 94.28C88.5101 94.28 89.4035 94.48 90.2301 94.88L89.1301 97.34C88.7035 97.1133 88.3101 97 87.9501 97C87.5101 97 87.1568 97.1333 86.8901 97.4C86.6368 97.6667 86.5101 98.0133 86.5101 98.44V99H89.8501V101.62H86.5101V109H83.4901ZM101.593 109.22C100.1 109.22 98.8401 108.727 97.8134 107.74C96.7868 106.753 96.2734 105.507 96.2734 104C96.2734 102.493 96.7868 101.247 97.8134 100.26C98.8401 99.2733 100.1 98.78 101.593 98.78C102.62 98.78 103.567 99.0467 104.433 99.58C105.3 100.113 105.947 100.82 106.373 101.7L103.733 103.1C103.293 102.1 102.58 101.6 101.593 101.6C100.953 101.6 100.413 101.827 99.9734 102.28C99.5334 102.733 99.3134 103.307 99.3134 104C99.3134 104.693 99.5334 105.267 99.9734 105.72C100.413 106.173 100.953 106.4 101.593 106.4C102.58 106.4 103.293 105.9 103.733 104.9L106.373 106.3C105.947 107.18 105.3 107.887 104.433 108.42C103.567 108.953 102.62 109.22 101.593 109.22ZM112.307 109.22C110.867 109.22 109.687 108.713 108.767 107.7C107.847 106.673 107.387 105.44 107.387 104C107.387 102.56 107.847 101.333 108.767 100.32C109.687 99.2933 110.867 98.78 112.307 98.78C113.253 98.78 114.04 99.06 114.667 99.62V99H117.687V109H114.667V108.36C114.053 108.933 113.267 109.22 112.307 109.22ZM112.767 106.48C113.553 106.48 114.187 106.16 114.667 105.52V102.46C114.173 101.833 113.54 101.52 112.767 101.52C112.1 101.52 111.553 101.76 111.127 102.24C110.713 102.72 110.507 103.307 110.507 104C110.507 104.693 110.713 105.28 111.127 105.76C111.553 106.24 112.1 106.48 112.767 106.48ZM125.694 109.12C124.454 109.12 123.461 108.8 122.714 108.16C121.981 107.52 121.614 106.58 121.614 105.34V101.62H119.214V99H121.614V95.96H124.634V99H127.634V101.62H124.634V104.72C124.634 105.307 124.754 105.733 124.994 106C125.234 106.253 125.614 106.38 126.134 106.38C126.641 106.38 127.094 106.273 127.494 106.06L128.394 108.52C128.141 108.667 127.748 108.807 127.214 108.94C126.681 109.06 126.174 109.12 125.694 109.12ZM134.23 109.22C132.723 109.22 131.457 108.747 130.43 107.8C129.417 106.84 128.91 105.573 128.91 104C128.91 102.507 129.41 101.267 130.41 100.28C131.41 99.28 132.663 98.78 134.17 98.78C135.57 98.78 136.75 99.2067 137.71 100.06C138.67 100.913 139.15 102.113 139.15 103.66C139.15 104.047 139.13 104.4 139.09 104.72H131.83C131.91 105.293 132.183 105.733 132.65 106.04C133.117 106.333 133.657 106.48 134.27 106.48C134.817 106.48 135.303 106.373 135.73 106.16C136.157 105.933 136.477 105.66 136.69 105.34L138.93 107.02C138.45 107.7 137.803 108.24 136.99 108.64C136.177 109.027 135.257 109.22 134.23 109.22ZM131.91 102.74H136.15C136.03 102.247 135.777 101.873 135.39 101.62C135.003 101.367 134.57 101.24 134.09 101.24C133.583 101.24 133.123 101.367 132.71 101.62C132.297 101.86 132.03 102.233 131.91 102.74ZM44.6703 121.362C45.373 121.362 46.0323 121.538 46.6482 121.889C47.2687 122.24 47.7524 122.717 48.0992 123.319C48.4459 123.922 48.6193 124.572 48.6193 125.27C48.6193 125.973 48.4436 126.63 48.0923 127.241C47.7455 127.852 47.271 128.332 46.6688 128.678C46.0665 129.021 45.4026 129.192 44.6772 129.192C43.6095 129.192 42.697 128.813 41.9396 128.056C41.1867 127.294 40.8103 126.37 40.8103 125.284C40.8103 124.12 41.2369 123.151 42.0901 122.375C42.8384 121.7 43.6985 121.362 44.6703 121.362ZM44.6977 123.121C44.1182 123.121 43.6346 123.324 43.2468 123.73C42.8635 124.132 42.6719 124.647 42.6719 125.277C42.6719 125.925 42.8612 126.449 43.2399 126.851C43.6232 127.253 44.1068 127.453 44.6908 127.453C45.2749 127.453 45.7608 127.25 46.1486 126.844C46.5364 126.438 46.7304 125.916 46.7304 125.277C46.7304 124.638 46.5387 124.12 46.1555 123.723C45.7768 123.322 45.2908 123.121 44.6977 123.121ZM49.2626 121.554H49.9265C49.9311 120.577 49.947 120 49.9744 119.822C50.0246 119.412 50.1957 119.088 50.4877 118.85C50.7843 118.609 51.2018 118.488 51.7402 118.488C52.128 118.488 52.566 118.577 53.0542 118.755V120.178C52.785 120.101 52.5637 120.062 52.3903 120.062C52.1713 120.062 52.0116 120.107 51.9113 120.199C51.8383 120.267 51.8018 120.409 51.8018 120.623L51.7949 121.554H52.9789V123.142H51.7949V129H49.9265V123.142H49.2626V121.554ZM65.2981 123.059L63.7445 123.915C63.4525 123.609 63.1628 123.397 62.8753 123.278C62.5924 123.16 62.2594 123.1 61.8761 123.1C61.178 123.1 60.6122 123.31 60.1788 123.73C59.7499 124.145 59.5355 124.679 59.5355 125.332C59.5355 125.966 59.7431 126.484 60.1583 126.885C60.5735 127.287 61.1187 127.487 61.794 127.487C62.6289 127.487 63.2791 127.202 63.7445 126.632L65.216 127.638C64.4175 128.674 63.2905 129.192 61.835 129.192C60.5256 129.192 59.499 128.804 58.7552 128.028C58.0161 127.253 57.6465 126.345 57.6465 125.304C57.6465 124.583 57.8267 123.919 58.1872 123.313C58.5476 122.706 59.0495 122.229 59.6929 121.882C60.3408 121.535 61.064 121.362 61.8624 121.362C62.6016 121.362 63.2654 121.51 63.854 121.807C64.4426 122.099 64.924 122.516 65.2981 123.059ZM70.4858 121.362C71.1885 121.362 71.8478 121.538 72.4638 121.889C73.0843 122.24 73.5679 122.717 73.9147 123.319C74.2614 123.922 74.4348 124.572 74.4348 125.27C74.4348 125.973 74.2592 126.63 73.9078 127.241C73.5611 127.852 73.0866 128.332 72.4843 128.678C71.882 129.021 71.2181 129.192 70.4927 129.192C69.425 129.192 68.5125 128.813 67.7551 128.056C67.0022 127.294 66.6258 126.37 66.6258 125.284C66.6258 124.12 67.0524 123.151 67.9057 122.375C68.6539 121.7 69.514 121.362 70.4858 121.362ZM70.5132 123.121C69.9338 123.121 69.4501 123.324 69.0623 123.73C68.679 124.132 68.4874 124.647 68.4874 125.277C68.4874 125.925 68.6767 126.449 69.0554 126.851C69.4387 127.253 69.9224 127.453 70.5064 127.453C71.0904 127.453 71.5763 127.25 71.9641 126.844C72.352 126.438 72.5459 125.916 72.5459 125.277C72.5459 124.638 72.3542 124.12 71.971 123.723C71.5923 123.322 71.1064 123.121 70.5132 123.121ZM75.9542 121.554H77.8294V122.409C78.1488 122.058 78.5024 121.796 78.8903 121.622C79.2826 121.449 79.7093 121.362 80.1701 121.362C80.6355 121.362 81.0552 121.476 81.4294 121.704C81.8035 121.932 82.1047 122.266 82.3328 122.704C82.6294 122.266 82.9921 121.932 83.421 121.704C83.8544 121.476 84.3267 121.362 84.8377 121.362C85.367 121.362 85.8323 121.485 86.2339 121.732C86.6354 121.978 86.9228 122.3 87.0962 122.697C87.2741 123.094 87.3631 123.739 87.3631 124.634V129H85.481V125.222C85.481 124.378 85.3761 123.808 85.1662 123.511C84.9563 123.21 84.6415 123.059 84.2217 123.059C83.9023 123.059 83.6149 123.151 83.3594 123.333C83.1084 123.516 82.9214 123.769 82.7982 124.093C82.675 124.412 82.6134 124.928 82.6134 125.64V129H80.7313V125.393C80.7313 124.727 80.6811 124.246 80.5807 123.949C80.4849 123.648 80.3389 123.424 80.1427 123.278C79.9465 123.132 79.7093 123.059 79.4309 123.059C79.1207 123.059 78.8378 123.153 78.5823 123.34C78.3313 123.523 78.142 123.78 78.0142 124.113C77.891 124.446 77.8294 124.971 77.8294 125.688V129H75.9542V121.554ZM91.0041 121.554V122.375C91.3418 122.037 91.7068 121.784 92.0992 121.615C92.4915 121.447 92.9113 121.362 93.3585 121.362C94.3303 121.362 95.1561 121.729 95.836 122.464C96.5158 123.199 96.8557 124.141 96.8557 125.291C96.8557 126.399 96.5044 127.328 95.8018 128.076C95.0991 128.82 94.2664 129.192 93.3037 129.192C92.8748 129.192 92.4756 129.116 92.106 128.966C91.7364 128.811 91.3691 128.56 91.0041 128.213V131.724H89.1494V121.554H91.0041ZM92.9683 123.087C92.3798 123.087 91.8916 123.288 91.5037 123.689C91.1159 124.091 90.922 124.615 90.922 125.263C90.922 125.925 91.1159 126.461 91.5037 126.872C91.8916 127.278 92.3798 127.481 92.9683 127.481C93.5387 127.481 94.0178 127.273 94.4056 126.858C94.798 126.443 94.9942 125.913 94.9942 125.27C94.9942 124.631 94.8025 124.109 94.4193 123.703C94.036 123.292 93.5524 123.087 92.9683 123.087ZM98.204 118.679H100.072V129H98.204V118.679ZM109.23 125.818H103.227C103.314 126.347 103.545 126.769 103.919 127.084C104.297 127.394 104.779 127.549 105.363 127.549C106.061 127.549 106.661 127.305 107.163 126.817L108.737 127.556C108.345 128.113 107.875 128.525 107.327 128.795C106.78 129.059 106.129 129.192 105.376 129.192C104.208 129.192 103.257 128.824 102.523 128.09C101.788 127.351 101.421 126.427 101.421 125.318C101.421 124.182 101.786 123.24 102.516 122.491C103.25 121.739 104.17 121.362 105.274 121.362C106.446 121.362 107.4 121.739 108.135 122.491C108.869 123.24 109.237 124.23 109.237 125.462L109.23 125.818ZM107.354 124.346C107.231 123.931 106.987 123.593 106.622 123.333C106.262 123.073 105.842 122.943 105.363 122.943C104.843 122.943 104.386 123.089 103.994 123.381C103.748 123.564 103.519 123.885 103.31 124.346H107.354ZM110.975 118.809H112.836V121.554H113.945V123.162H112.836V129H110.975V123.162H110.017V121.554H110.975V118.809ZM115.684 118.488C116.012 118.488 116.293 118.606 116.525 118.844C116.763 119.081 116.881 119.368 116.881 119.706C116.881 120.039 116.765 120.324 116.532 120.561C116.3 120.794 116.021 120.91 115.697 120.91C115.364 120.91 115.079 120.792 114.842 120.555C114.609 120.313 114.493 120.021 114.493 119.678C114.493 119.35 114.609 119.069 114.842 118.837C115.074 118.604 115.355 118.488 115.684 118.488ZM114.746 121.554H116.621V129H114.746V121.554ZM121.816 121.362C122.518 121.362 123.178 121.538 123.794 121.889C124.414 122.24 124.898 122.717 125.245 123.319C125.591 123.922 125.765 124.572 125.765 125.27C125.765 125.973 125.589 126.63 125.238 127.241C124.891 127.852 124.416 128.332 123.814 128.678C123.212 129.021 122.548 129.192 121.823 129.192C120.755 129.192 119.842 128.813 119.085 128.056C118.332 127.294 117.956 126.37 117.956 125.284C117.956 124.12 118.382 123.151 119.236 122.375C119.984 121.7 120.844 121.362 121.816 121.362ZM121.843 123.121C121.264 123.121 120.78 123.324 120.392 123.73C120.009 124.132 119.817 124.647 119.817 125.277C119.817 125.925 120.007 126.449 120.385 126.851C120.769 127.253 121.252 127.453 121.836 127.453C122.42 127.453 122.906 127.25 123.294 126.844C123.682 126.438 123.876 125.916 123.876 125.277C123.876 124.638 123.684 124.12 123.301 123.723C122.922 123.322 122.436 123.121 121.843 123.121ZM127.298 121.554H129.159V122.313C129.584 121.958 129.967 121.711 130.309 121.574C130.656 121.433 131.01 121.362 131.37 121.362C132.109 121.362 132.736 121.62 133.252 122.135C133.686 122.573 133.902 123.221 133.902 124.079V129H132.054V125.735C132.054 124.846 132.013 124.255 131.931 123.963C131.854 123.671 131.714 123.45 131.514 123.299C131.318 123.144 131.073 123.066 130.781 123.066C130.403 123.066 130.076 123.194 129.803 123.45C129.534 123.7 129.346 124.05 129.241 124.497C129.187 124.729 129.159 125.234 129.159 126.009V129H127.298V121.554Z" fill="white"/>
<path d="M132.188 240.404H46.5625C44.2916 240.404 42.1137 241.306 40.5079 242.912C38.9021 244.518 38 246.696 38 248.967V278.936C38 307.149 51.6572 324.247 63.1149 333.623C75.4556 343.716 87.7321 347.147 88.2672 347.286C89.0031 347.486 89.779 347.486 90.5149 347.286C91.05 347.147 103.31 343.716 115.667 333.623C127.093 324.247 140.75 307.149 140.75 278.936V248.967C140.75 246.696 139.848 244.518 138.242 242.912C136.636 241.306 134.458 240.404 132.188 240.404ZM132.188 278.936C132.188 298.774 124.877 314.877 110.46 326.789C104.184 331.957 97.0467 335.979 89.375 338.67C81.8037 336.026 74.7543 332.076 68.5467 326.998C53.9584 315.064 46.5625 298.897 46.5625 278.936V248.967H132.188V278.936Z" fill="white"/>
<path d="M67.5969 277.459L66.7261 278.289C66.1337 277.664 65.4673 277.352 64.7268 277.352C64.1018 277.352 63.5746 277.565 63.1452 277.992C62.7186 278.418 62.5054 278.944 62.5054 279.569C62.5054 280.004 62.6002 280.391 62.7897 280.728C62.9793 281.066 63.2473 281.331 63.5939 281.524C63.9404 281.716 64.3255 281.813 64.749 281.813C65.1104 281.813 65.4406 281.746 65.7398 281.613C66.0389 281.476 66.3677 281.231 66.7261 280.875L67.5702 281.755C67.0875 282.226 66.6313 282.553 66.2018 282.737C65.7724 282.917 65.2822 283.008 64.7313 283.008C63.7153 283.008 62.883 282.686 62.2344 282.044C61.5887 281.398 61.2658 280.571 61.2658 279.564C61.2658 278.913 61.4124 278.334 61.7057 277.827C62.0019 277.321 62.4239 276.914 62.9719 276.605C63.5228 276.297 64.1152 276.143 64.749 276.143C65.2881 276.143 65.8064 276.257 66.304 276.486C66.8046 276.714 67.2355 277.038 67.5969 277.459ZM73.3993 280.777H69.5029C69.5592 281.121 69.7087 281.395 69.9516 281.599C70.1975 281.801 70.5099 281.901 70.8891 281.901C71.3422 281.901 71.7317 281.743 72.0575 281.426L73.0794 281.906C72.8247 282.267 72.5196 282.535 72.1642 282.71C71.8087 282.882 71.3867 282.968 70.8979 282.968C70.1397 282.968 69.5221 282.729 69.0453 282.252C68.5684 281.773 68.33 281.173 68.33 280.453C68.33 279.715 68.5669 279.104 69.0408 278.618C69.5177 278.129 70.1145 277.885 70.8313 277.885C71.5925 277.885 72.2116 278.129 72.6884 278.618C73.1653 279.104 73.4037 279.747 73.4037 280.546L73.3993 280.777ZM72.1819 279.822C72.102 279.553 71.9435 279.333 71.7065 279.165C71.4726 278.996 71.2001 278.911 70.8891 278.911C70.5514 278.911 70.2552 279.006 70.0005 279.196C69.8405 279.314 69.6925 279.523 69.5562 279.822H72.1819ZM74.1013 278.009H75.1409V278.618C75.2534 278.378 75.403 278.196 75.5896 278.072C75.7762 277.947 75.9806 277.885 76.2027 277.885C76.3597 277.885 76.5241 277.926 76.6959 278.009L76.3182 279.053C76.1761 278.982 76.0591 278.947 75.9673 278.947C75.7807 278.947 75.6222 279.062 75.4919 279.293C75.3645 279.524 75.3008 279.978 75.3008 280.653L75.3053 280.888V282.843H74.1013V278.009ZM77.4467 276.228H78.6552V278.009H79.3749V279.053H78.6552V282.843H77.4467V279.053H76.8247V278.009H77.4467V276.228ZM80.5034 276.019C80.7167 276.019 80.8988 276.096 81.0499 276.25C81.2039 276.404 81.2809 276.591 81.2809 276.81C81.2809 277.026 81.2054 277.211 81.0543 277.365C80.9033 277.516 80.7226 277.592 80.5123 277.592C80.2961 277.592 80.111 277.515 79.9569 277.361C79.8059 277.204 79.7304 277.014 79.7304 276.792C79.7304 276.579 79.8059 276.397 79.9569 276.246C80.108 276.095 80.2902 276.019 80.5034 276.019ZM79.8947 278.009H81.1121V282.843H79.8947V278.009ZM81.6363 278.009H82.0673C82.0703 277.376 82.0806 277.001 82.0984 276.885C82.131 276.619 82.2421 276.409 82.4316 276.254C82.6241 276.098 82.8952 276.019 83.2447 276.019C83.4964 276.019 83.7808 276.077 84.0977 276.192V277.116C83.9229 277.066 83.7793 277.041 83.6667 277.041C83.5246 277.041 83.4209 277.071 83.3557 277.13C83.3083 277.174 83.2847 277.266 83.2847 277.405L83.2802 278.009H84.0488V279.04H83.2802V282.843H82.0673V279.04H81.6363V278.009ZM85.2395 276.019C85.4528 276.019 85.6349 276.096 85.786 276.25C85.94 276.404 86.017 276.591 86.017 276.81C86.017 277.026 85.9415 277.211 85.7904 277.365C85.6394 277.516 85.4587 277.592 85.2484 277.592C85.0322 277.592 84.8471 277.515 84.693 277.361C84.542 277.204 84.4665 277.014 84.4665 276.792C84.4665 276.579 84.542 276.397 84.693 276.246C84.8441 276.095 85.0263 276.019 85.2395 276.019ZM84.6308 278.009H85.8482V282.843H84.6308V278.009ZM91.7927 280.777H87.8963C87.9526 281.121 88.1022 281.395 88.3451 281.599C88.5909 281.801 88.9034 281.901 89.2825 281.901C89.7357 281.901 90.1252 281.743 90.451 281.426L91.4728 281.906C91.2181 282.267 90.913 282.535 90.5576 282.71C90.2022 282.882 89.7801 282.968 89.2914 282.968C88.5332 282.968 87.9156 282.729 87.4387 282.252C86.9619 281.773 86.7234 281.173 86.7234 280.453C86.7234 279.715 86.9604 279.104 87.4343 278.618C87.9112 278.129 88.508 277.885 89.2248 277.885C89.986 277.885 90.605 278.129 91.0819 278.618C91.5587 279.104 91.7972 279.747 91.7972 280.546L91.7927 280.777ZM90.5754 279.822C90.4954 279.553 90.337 279.333 90.1 279.165C89.866 278.996 89.5935 278.911 89.2825 278.911C88.9449 278.911 88.6487 279.006 88.3939 279.196C88.234 279.314 88.0859 279.523 87.9497 279.822H90.5754ZM96.3511 276.143H97.5596V282.843H96.3511V282.332C96.1142 282.557 95.8757 282.72 95.6358 282.821C95.3989 282.919 95.1412 282.968 94.8627 282.968C94.2378 282.968 93.6972 282.726 93.2411 282.243C92.785 281.758 92.5569 281.155 92.5569 280.435C92.5569 279.689 92.7776 279.077 93.2189 278.6C93.6602 278.123 94.1963 277.885 94.8272 277.885C95.1175 277.885 95.39 277.94 95.6447 278.049C95.8994 278.159 96.1349 278.323 96.3511 278.543V276.143ZM95.076 279.005C94.6998 279.005 94.3874 279.138 94.1386 279.404C93.8898 279.668 93.7654 280.007 93.7654 280.422C93.7654 280.84 93.8912 281.183 94.143 281.453C94.3977 281.722 94.7102 281.857 95.0804 281.857C95.4625 281.857 95.7795 281.725 96.0312 281.462C96.283 281.195 96.4089 280.847 96.4089 280.417C96.4089 279.997 96.283 279.656 96.0312 279.396C95.7795 279.135 95.4611 279.005 95.076 279.005ZM102.54 276.143V278.543C102.759 278.323 102.996 278.159 103.251 278.049C103.506 277.94 103.778 277.885 104.068 277.885C104.699 277.885 105.235 278.123 105.677 278.6C106.118 279.077 106.339 279.689 106.339 280.435C106.339 281.155 106.111 281.758 105.654 282.243C105.198 282.726 104.658 282.968 104.033 282.968C103.754 282.968 103.495 282.919 103.255 282.821C103.015 282.72 102.777 282.557 102.54 282.332V282.843H101.336V276.143H102.54ZM103.815 279.005C103.433 279.005 103.116 279.135 102.864 279.396C102.613 279.656 102.487 279.997 102.487 280.417C102.487 280.847 102.613 281.195 102.864 281.462C103.116 281.725 103.433 281.857 103.815 281.857C104.185 281.857 104.496 281.722 104.748 281.453C105.003 281.183 105.13 280.84 105.13 280.422C105.13 280.007 105.006 279.668 104.757 279.404C104.508 279.138 104.194 279.005 103.815 279.005ZM106.805 278.009H108.045L109.302 281.044L110.688 278.009H111.932L108.902 284.612H107.649L108.645 282.483L106.805 278.009ZM67.5969 288.459L66.7261 289.289C66.1337 288.664 65.4673 288.352 64.7268 288.352C64.1018 288.352 63.5746 288.565 63.1452 288.992C62.7186 289.418 62.5054 289.944 62.5054 290.569C62.5054 291.004 62.6002 291.391 62.7897 291.728C62.9793 292.066 63.2473 292.331 63.5939 292.524C63.9404 292.716 64.3255 292.813 64.749 292.813C65.1104 292.813 65.4406 292.746 65.7398 292.613C66.0389 292.476 66.3677 292.231 66.7261 291.875L67.5702 292.755C67.0875 293.226 66.6313 293.553 66.2018 293.737C65.7724 293.917 65.2822 294.008 64.7313 294.008C63.7153 294.008 62.883 293.686 62.2344 293.044C61.5887 292.398 61.2658 291.571 61.2658 290.564C61.2658 289.913 61.4124 289.334 61.7057 288.827C62.0019 288.321 62.4239 287.914 62.9719 287.605C63.5228 287.297 64.1152 287.143 64.749 287.143C65.2881 287.143 65.8064 287.257 66.304 287.486C66.8046 287.714 67.2355 288.038 67.5969 288.459ZM68.019 289.009H69.2585L70.5159 292.044L71.902 289.009H73.146L70.116 295.612H68.8631L69.8583 293.483L68.019 289.009ZM75.0387 287.143V289.543C75.2579 289.323 75.4948 289.159 75.7496 289.049C76.0043 288.94 76.2768 288.885 76.567 288.885C77.1979 288.885 77.734 289.123 78.1754 289.6C78.6167 290.077 78.8373 290.689 78.8373 291.435C78.8373 292.155 78.6093 292.758 78.1531 293.243C77.697 293.726 77.1565 293.968 76.5315 293.968C76.2531 293.968 75.9939 293.919 75.754 293.821C75.5141 293.72 75.2756 293.557 75.0387 293.332V293.843H73.8347V287.143H75.0387ZM76.3138 290.005C75.9317 290.005 75.6148 290.135 75.363 290.396C75.1113 290.656 74.9854 290.997 74.9854 291.417C74.9854 291.847 75.1113 292.195 75.363 292.462C75.6148 292.725 75.9317 292.857 76.3138 292.857C76.684 292.857 76.995 292.722 77.2468 292.453C77.5015 292.183 77.6289 291.84 77.6289 291.422C77.6289 291.007 77.5045 290.668 77.2557 290.404C77.0069 290.138 76.6929 290.005 76.3138 290.005ZM84.6842 291.777H80.7878C80.844 292.121 80.9936 292.395 81.2365 292.599C81.4823 292.801 81.7948 292.901 82.1739 292.901C82.6271 292.901 83.0166 292.743 83.3424 292.426L84.3643 292.906C84.1095 293.267 83.8045 293.535 83.449 293.71C83.0936 293.882 82.6715 293.968 82.1828 293.968C81.4246 293.968 80.807 293.729 80.3301 293.252C79.8533 292.773 79.6148 292.173 79.6148 291.453C79.6148 290.715 79.8518 290.104 80.3257 289.618C80.8026 289.129 81.3994 288.885 82.1162 288.885C82.8774 288.885 83.4964 289.129 83.9733 289.618C84.4502 290.104 84.6886 290.747 84.6886 291.546L84.6842 291.777ZM83.4668 290.822C83.3868 290.553 83.2284 290.333 82.9914 290.165C82.7574 289.996 82.4849 289.911 82.1739 289.911C81.8363 289.911 81.5401 290.006 81.2854 290.196C81.1254 290.314 80.9773 290.523 80.8411 290.822H83.4668ZM85.3861 289.009H86.4258V289.618C86.5383 289.378 86.6879 289.196 86.8745 289.072C87.0611 288.947 87.2655 288.885 87.4876 288.885C87.6446 288.885 87.809 288.926 87.9808 289.009L87.6031 290.053C87.4609 289.982 87.3439 289.947 87.2521 289.947C87.0655 289.947 86.9071 290.062 86.7767 290.293C86.6494 290.524 86.5857 290.978 86.5857 291.653L86.5901 291.888V293.843H85.3861V289.009ZM88.7227 287.308H90.1977C91.1485 287.308 91.8549 287.426 92.317 287.663C92.779 287.897 93.1597 288.279 93.4588 288.809C93.758 289.34 93.9075 289.959 93.9075 290.667C93.9075 291.17 93.8231 291.634 93.6543 292.057C93.4884 292.478 93.2574 292.827 92.9612 293.106C92.668 293.384 92.3496 293.577 92.006 293.683C91.6624 293.79 91.0671 293.843 90.22 293.843H88.7227V287.308ZM89.9623 288.507V292.626H90.5398C91.1085 292.626 91.5202 292.561 91.775 292.43C92.0326 292.3 92.2429 292.081 92.4058 291.773C92.5688 291.465 92.6502 291.086 92.6502 290.636C92.6502 289.942 92.4562 289.405 92.0682 289.023C91.7187 288.679 91.1574 288.507 90.3843 288.507H89.9623ZM99.7988 291.777H95.9024C95.9587 292.121 96.1082 292.395 96.3511 292.599C96.5969 292.801 96.9094 292.901 97.2886 292.901C97.7417 292.901 98.1312 292.743 98.457 292.426L99.4789 292.906C99.2242 293.267 98.9191 293.535 98.5637 293.71C98.2082 293.882 97.7862 293.968 97.2974 293.968C96.5392 293.968 95.9216 293.729 95.4448 293.252C94.9679 292.773 94.7295 292.173 94.7295 291.453C94.7295 290.715 94.9664 290.104 95.4403 289.618C95.9172 289.129 96.514 288.885 97.2308 288.885C97.992 288.885 98.611 289.129 99.0879 289.618C99.5648 290.104 99.8032 290.747 99.8032 291.546L99.7988 291.777ZM98.5814 290.822C98.5015 290.553 98.343 290.333 98.106 290.165C97.872 289.996 97.5996 289.911 97.2886 289.911C96.9509 289.911 96.6547 290.006 96.4 290.196C96.24 290.314 96.0919 290.523 95.9557 290.822H98.5814ZM100.776 289.009H101.994V289.565C102.201 289.337 102.43 289.166 102.682 289.054C102.937 288.941 103.214 288.885 103.513 288.885C103.815 288.885 104.088 288.959 104.33 289.107C104.573 289.255 104.769 289.471 104.917 289.756C105.109 289.471 105.345 289.255 105.623 289.107C105.905 288.959 106.211 288.885 106.543 288.885C106.887 288.885 107.189 288.965 107.449 289.125C107.71 289.285 107.897 289.494 108.009 289.751C108.125 290.009 108.182 290.428 108.182 291.009V293.843H106.961V291.391C106.961 290.843 106.893 290.473 106.756 290.28C106.62 290.085 106.416 289.987 106.143 289.987C105.936 289.987 105.749 290.046 105.583 290.165C105.42 290.283 105.299 290.447 105.219 290.658C105.139 290.865 105.099 291.2 105.099 291.662V293.843H103.877V291.502C103.877 291.069 103.845 290.757 103.78 290.564C103.717 290.369 103.623 290.224 103.495 290.129C103.368 290.034 103.214 289.987 103.033 289.987C102.832 289.987 102.648 290.048 102.482 290.169C102.319 290.287 102.196 290.455 102.114 290.671C102.034 290.887 101.994 291.228 101.994 291.693V293.843H100.776V289.009ZM109.817 287.019C110.031 287.019 110.213 287.096 110.364 287.25C110.518 287.404 110.595 287.591 110.595 287.81C110.595 288.026 110.519 288.211 110.368 288.365C110.217 288.516 110.037 288.592 109.826 288.592C109.61 288.592 109.425 288.515 109.271 288.361C109.12 288.204 109.044 288.014 109.044 287.792C109.044 287.579 109.12 287.397 109.271 287.246C109.422 287.095 109.604 287.019 109.817 287.019ZM109.209 289.009H110.426V293.843H109.209V289.009ZM115.1 289.009H116.308V293.843H115.1V293.332C114.863 293.557 114.625 293.72 114.385 293.821C114.148 293.919 113.89 293.968 113.612 293.968C112.987 293.968 112.446 293.726 111.99 293.243C111.534 292.758 111.306 292.155 111.306 291.435C111.306 290.689 111.526 290.077 111.968 289.6C112.409 289.123 112.945 288.885 113.576 288.885C113.866 288.885 114.139 288.94 114.394 289.049C114.648 289.159 114.884 289.323 115.1 289.543V289.009ZM113.825 290.005C113.449 290.005 113.136 290.138 112.887 290.404C112.639 290.668 112.514 291.007 112.514 291.422C112.514 291.84 112.64 292.183 112.892 292.453C113.147 292.722 113.459 292.857 113.829 292.857C114.211 292.857 114.528 292.725 114.78 292.462C115.032 292.195 115.158 291.847 115.158 291.417C115.158 290.997 115.032 290.656 114.78 290.396C114.528 290.135 114.21 290.005 113.825 290.005Z" fill="white"/>
<path d="M89.9167 266H-40.9167C-44.3866 266 -47.7144 267.379 -50.168 269.834C-52.6216 272.289 -54 275.618 -54 279.09V324.905C-54 368.036 -33.1321 394.175 -15.625 408.508C3.2314 423.938 21.9896 429.182 22.8073 429.395C23.9317 429.701 25.1174 429.701 26.2417 429.395C27.0594 429.182 45.7931 423.938 64.674 408.508C82.1321 394.175 103 368.036 103 324.905V279.09C103 275.618 101.622 272.289 99.168 269.834C96.7144 267.379 93.3866 266 89.9167 266ZM89.9167 324.905C89.9167 355.232 78.7468 379.85 56.7177 398.061C47.1283 405.962 36.2223 412.11 24.5 416.223C12.9311 412.181 2.15978 406.142 -7.32521 398.38C-29.6159 380.136 -40.9167 355.421 -40.9167 324.905V279.09H89.9167V324.905Z" fill="white" fill-opacity="0.1"/>
</g>
<defs>
<clipPath id="clip0_334_12672">
<rect width="175" height="442" fill="white"/>
</clipPath>
</defs>
</svg>
