<svg width="33" height="32" viewBox="0 0 33 32" fill="none" xmlns="http://www.w3.org/2000/svg">
<path d="M16.7031 3C14.132 3 11.6186 3.76244 9.48072 5.1909C7.34288 6.61935 5.67664 8.64968 4.6927 11.0251C3.70876 13.4006 3.45131 16.0144 3.95292 18.5362C4.45453 21.0579 5.69266 23.3743 7.51074 25.1924C9.32883 27.0105 11.6452 28.2486 14.167 28.7502C16.6887 29.2518 19.3026 28.9944 21.678 28.0104C24.0535 27.0265 26.0838 25.3603 27.5122 23.2224C28.9407 21.0846 29.7031 18.5712 29.7031 16C29.6995 12.5533 28.3287 9.24882 25.8915 6.81163C23.4543 4.37445 20.1498 3.00364 16.7031 3ZM22.4106 13.7075L15.4106 20.7075C15.3178 20.8005 15.2075 20.8742 15.0861 20.9246C14.9647 20.9749 14.8345 21.0008 14.7031 21.0008C14.5717 21.0008 14.4416 20.9749 14.3202 20.9246C14.1988 20.8742 14.0885 20.8005 13.9956 20.7075L10.9956 17.7075C10.808 17.5199 10.7026 17.2654 10.7026 17C10.7026 16.7346 10.808 16.4801 10.9956 16.2925C11.1833 16.1049 11.4378 15.9994 11.7031 15.9994C11.9685 15.9994 12.223 16.1049 12.4106 16.2925L14.7031 18.5863L20.9956 12.2925C21.0885 12.1996 21.1988 12.1259 21.3202 12.0756C21.4416 12.0253 21.5717 11.9994 21.7031 11.9994C21.8345 11.9994 21.9646 12.0253 22.086 12.0756C22.2074 12.1259 22.3177 12.1996 22.4106 12.2925C22.5035 12.3854 22.5772 12.4957 22.6275 12.6171C22.6778 12.7385 22.7037 12.8686 22.7037 13C22.7037 13.1314 22.6778 13.2615 22.6275 13.3829C22.5772 13.5043 22.5035 13.6146 22.4106 13.7075Z" fill="#00CD15"/>
</svg>
