<svg width="48" height="56" viewBox="0 0 48 56" fill="none" xmlns="http://www.w3.org/2000/svg">
<path d="M24.0039 8C19.2572 8 14.617 9.40758 10.6702 12.0447C6.72345 14.6819 3.64731 18.4302 1.83081 22.8156C0.0143051 27.201 -0.460975 32.0266 0.46507 36.6822C1.39112 41.3377 3.67689 45.6141 7.03335 48.9706C10.3898 52.327 14.6662 54.6128 19.3218 55.5388C23.9773 56.4649 28.8029 55.9896 33.1883 54.1731C37.5737 52.3566 41.322 49.2805 43.9592 45.3337C46.5963 41.3869 48.0039 36.7467 48.0039 32C47.9966 25.637 45.4657 19.5368 40.9664 15.0375C36.4671 10.5382 30.3669 8.00728 24.0039 8ZM24.0039 52C20.0483 52 16.1815 50.827 12.8925 48.6294C9.60353 46.4318 7.04008 43.3082 5.52633 39.6537C4.01257 35.9991 3.61651 31.9778 4.38821 28.0982C5.15992 24.2186 7.06473 20.6549 9.86178 17.8579C12.6588 15.0608 16.2225 13.156 20.1021 12.3843C23.9817 11.6126 28.0031 12.0087 31.6576 13.5224C35.3121 15.0362 38.4357 17.5996 40.6333 20.8886C42.8309 24.1776 44.0039 28.0444 44.0039 32C43.998 37.3025 41.8889 42.3861 38.1395 46.1356C34.39 49.885 29.3064 51.994 24.0039 52ZM35.4189 20.585C35.6049 20.7707 35.7524 20.9913 35.853 21.2341C35.9537 21.4769 36.0055 21.7372 36.0055 22C36.0055 22.2628 35.9537 22.5231 35.853 22.7659C35.7524 23.0087 35.6049 23.2293 35.4189 23.415L25.4189 33.415C25.2331 33.6008 25.0125 33.7482 24.7697 33.8488C24.5269 33.9494 24.2667 34.0011 24.0039 34.0011C23.7411 34.0011 23.4809 33.9494 23.2381 33.8488C22.9953 33.7482 22.7747 33.6008 22.5889 33.415C22.4031 33.2292 22.2557 33.0086 22.1551 32.7658C22.0546 32.523 22.0028 32.2628 22.0028 32C22.0028 31.7372 22.0546 31.477 22.1551 31.2342C22.2557 30.9914 22.4031 30.7708 22.5889 30.585L32.5889 20.585C32.7747 20.399 32.9952 20.2515 33.238 20.1509C33.4808 20.0502 33.7411 19.9984 34.0039 19.9984C34.2668 19.9984 34.527 20.0502 34.7698 20.1509C35.0126 20.2515 35.2332 20.399 35.4189 20.585ZM16.0039 2C16.0039 1.46957 16.2146 0.960859 16.5897 0.585786C16.9648 0.210714 17.4735 0 18.0039 0H30.0039C30.5344 0 31.0431 0.210714 31.4181 0.585786C31.7932 0.960859 32.0039 1.46957 32.0039 2C32.0039 2.53043 31.7932 3.03914 31.4181 3.41421C31.0431 3.78929 30.5344 4 30.0039 4H18.0039C17.4735 4 16.9648 3.78929 16.5897 3.41421C16.2146 3.03914 16.0039 2.53043 16.0039 2Z" fill="black"/>
</svg>
