<svg width="230" height="230" viewBox="0 0 230 230" fill="none" xmlns="http://www.w3.org/2000/svg">
<g filter="url(#filter0_f_334_12647)">
<path d="M114.848 15.9102C169.503 15.9102 213.878 60.2856 213.878 114.94C213.878 169.595 169.503 213.971 114.848 213.971C60.1933 213.971 15.8179 169.595 15.8179 114.94C15.8179 60.2856 60.1933 15.9102 114.848 15.9102Z" fill="#4CD964"/>
</g>
<path d="M109.176 146.174C106.744 148.632 105.31 150.082 105.31 150.082L66.9185 111.689L76.0279 102.58L105.31 131.211L158.017 78.5039L167.127 87.6134C167.127 87.6134 122.709 132.499 109.176 146.174Z" fill="white"/>
<g filter="url(#filter1_f_334_12647)">
<path d="M191.512 152.449C170.692 195.002 119.891 212.423 77.3382 191.603C34.7857 170.783 17.3644 119.981 38.1845 77.4286C59.0047 34.8761 109.806 17.4548 152.359 38.2749C194.911 59.0951 212.332 109.897 191.512 152.449Z" stroke="white" stroke-width="2.97403" stroke-linecap="round"/>
</g>
<defs>
<filter id="filter0_f_334_12647" x="2.93042" y="3.02271" width="223.835" height="223.835" filterUnits="userSpaceOnUse" color-interpolation-filters="sRGB">
<feFlood flood-opacity="0" result="BackgroundImageFix"/>
<feBlend mode="normal" in="SourceGraphic" in2="BackgroundImageFix" result="shape"/>
<feGaussianBlur stdDeviation="6.44372" result="effect1_foregroundBlur_334_12647"/>
</filter>
<filter id="filter1_f_334_12647" x="24.9366" y="25.0279" width="179.824" height="179.823" filterUnits="userSpaceOnUse" color-interpolation-filters="sRGB">
<feFlood flood-opacity="0" result="BackgroundImageFix"/>
<feBlend mode="normal" in="SourceGraphic" in2="BackgroundImageFix" result="shape"/>
<feGaussianBlur stdDeviation="1.48701" result="effect1_foregroundBlur_334_12647"/>
</filter>
</defs>
</svg>
