<svg width="31" height="18" viewBox="0 0 31 18" fill="none" xmlns="http://www.w3.org/2000/svg">
<path d="M17.9998 3.00003C17.9998 2.73481 18.1051 2.48046 18.2927 2.29292C18.4802 2.10539 18.7346 2.00003 18.9998 2.00003H29.9998C30.265 2.00003 30.5194 2.10539 30.7069 2.29292C30.8944 2.48046 30.9998 2.73481 30.9998 3.00003C30.9998 3.26524 30.8944 3.5196 30.7069 3.70713C30.5194 3.89467 30.265 4.00003 29.9998 4.00003H18.9998C18.7346 4.00003 18.4802 3.89467 18.2927 3.70713C18.1051 3.5196 17.9998 3.26524 17.9998 3.00003ZM29.9998 8.00003H18.9998C18.7346 8.00003 18.4802 8.10538 18.2927 8.29292C18.1051 8.48046 17.9998 8.73481 17.9998 9.00003C17.9998 9.26525 18.1051 9.5196 18.2927 9.70714C18.4802 9.89467 18.7346 10 18.9998 10H29.9998C30.265 10 30.5194 9.89467 30.7069 9.70714C30.8944 9.5196 30.9998 9.26525 30.9998 9.00003C30.9998 8.73481 30.8944 8.48046 30.7069 8.29292C30.5194 8.10538 30.265 8.00003 29.9998 8.00003ZM29.9998 14H21.9998C21.7346 14 21.4802 14.1054 21.2927 14.2929C21.1051 14.4805 20.9998 14.7348 20.9998 15C20.9998 15.2652 21.1051 15.5196 21.2927 15.7071C21.4802 15.8947 21.7346 16 21.9998 16H29.9998C30.265 16 30.5194 15.8947 30.7069 15.7071C30.8944 15.5196 30.9998 15.2652 30.9998 15C30.9998 14.7348 30.8944 14.4805 30.7069 14.2929C30.5194 14.1054 30.265 14 29.9998 14ZM17.9685 16.75C18.0012 16.8772 18.0085 17.0097 17.99 17.1397C17.9715 17.2697 17.9276 17.3949 17.8608 17.5079C17.7939 17.621 17.7054 17.7198 17.6004 17.7986C17.4953 17.8775 17.3758 17.9349 17.2485 17.9675C17.167 17.9895 17.083 18.0004 16.9985 18C16.7768 18.0001 16.5612 17.9265 16.3859 17.7908C16.2105 17.655 16.0852 17.4648 16.0298 17.25C15.2598 14.2575 12.2373 12 8.99854 12C5.75979 12 2.73729 14.2563 1.96729 17.25C1.90098 17.507 1.73533 17.727 1.50677 17.8618C1.27821 17.9966 1.00547 18.0351 0.748538 17.9688C0.491609 17.9025 0.271543 17.7368 0.136751 17.5083C0.0019597 17.2797 -0.0365163 17.007 0.0297878 16.75C0.728538 14.0363 2.75979 11.8388 5.33729 10.75C4.34483 9.98561 3.61652 8.92971 3.25452 7.73043C2.89251 6.53115 2.91496 5.24864 3.31872 4.06276C3.72248 2.87689 4.48729 1.84713 5.5059 1.11791C6.5245 0.388688 7.74581 -0.00341797 8.99854 -0.00341797C10.2513 -0.00341797 11.4726 0.388688 12.4912 1.11791C13.5098 1.84713 14.2746 2.87689 14.6784 4.06276C15.0821 5.24864 15.1046 6.53115 14.7426 7.73043C14.3806 8.92971 13.6522 9.98561 12.6598 10.75C15.2385 11.8388 17.2698 14.0363 17.9685 16.75ZM8.99979 10C9.79091 10 10.5643 9.76543 11.2221 9.32591C11.8799 8.88638 12.3926 8.26167 12.6953 7.53076C12.9981 6.79986 13.0773 5.99559 12.9229 5.21967C12.7686 4.44374 12.3876 3.73101 11.8282 3.1716C11.2688 2.61219 10.5561 2.23123 9.78015 2.07689C9.00423 1.92255 8.19996 2.00176 7.46905 2.30451C6.73815 2.60726 6.11343 3.11995 5.67391 3.77775C5.23438 4.43554 4.99979 5.2089 4.99979 6.00003C4.99979 7.06089 5.42122 8.07831 6.17136 8.82845C6.92151 9.5786 7.93892 10 8.99979 10Z" fill="#AC1D7E"/>
</svg>
