<svg width="56" height="42" viewBox="0 0 56 42" fill="none" xmlns="http://www.w3.org/2000/svg">
<path d="M54 30H52V6C52 4.4087 51.3679 2.88258 50.2426 1.75736C49.1174 0.632141 47.5913 0 46 0H10C8.4087 0 6.88258 0.632141 5.75736 1.75736C4.63214 2.88258 4 4.4087 4 6V30H2C1.46957 30 0.960859 30.2107 0.585786 30.5858C0.210714 30.9609 0 31.4696 0 32V36C0 37.5913 0.632141 39.1174 1.75736 40.2426C2.88258 41.3679 4.4087 42 6 42H50C51.5913 42 53.1174 41.3679 54.2426 40.2426C55.3679 39.1174 56 37.5913 56 36V32C56 31.4696 55.7893 30.9609 55.4142 30.5858C55.0391 30.2107 54.5304 30 54 30ZM8 6C8 5.46957 8.21071 4.96086 8.58579 4.58579C8.96086 4.21071 9.46957 4 10 4H46C46.5304 4 47.0391 4.21071 47.4142 4.58579C47.7893 4.96086 48 5.46957 48 6V30H8V6ZM52 36C52 36.5304 51.7893 37.0391 51.4142 37.4142C51.0391 37.7893 50.5304 38 50 38H6C5.46957 38 4.96086 37.7893 4.58579 37.4142C4.21071 37.0391 4 36.5304 4 36V34H52V36ZM34 10C34 10.5304 33.7893 11.0391 33.4142 11.4142C33.0391 11.7893 32.5304 12 32 12H24C23.4696 12 22.9609 11.7893 22.5858 11.4142C22.2107 11.0391 22 10.5304 22 10C22 9.46957 22.2107 8.96086 22.5858 8.58579C22.9609 8.21071 23.4696 8 24 8H32C32.5304 8 33.0391 8.21071 33.4142 8.58579C33.7893 8.96086 34 9.46957 34 10Z" fill="#AC1D7E"/>
</svg>
