<svg width="25" height="25" viewBox="0 0 25 25" fill="none" xmlns="http://www.w3.org/2000/svg">
<path d="M22.5039 0.948242H2.50391C1.97347 0.948242 1.46477 1.15896 1.08969 1.53403C0.71462 1.9091 0.503906 2.41781 0.503906 2.94824V22.9482C0.503906 23.4787 0.71462 23.9874 1.08969 24.3625C1.46477 24.7375 1.97347 24.9482 2.50391 24.9482H22.5039C23.0343 24.9482 23.543 24.7375 23.9181 24.3625C24.2932 23.9874 24.5039 23.4787 24.5039 22.9482V2.94824C24.5039 2.41781 24.2932 1.9091 23.9181 1.53403C23.543 1.15896 23.0343 0.948242 22.5039 0.948242ZM11.2114 15.6557L7.21141 19.6557C7.11853 19.7487 7.00824 19.8225 6.88685 19.8728C6.76545 19.9231 6.63532 19.949 6.50391 19.949C6.37249 19.949 6.24236 19.9231 6.12097 19.8728C5.99957 19.8225 5.88928 19.7487 5.79641 19.6557L3.79641 17.6557C3.60877 17.4681 3.50335 17.2136 3.50335 16.9482C3.50335 16.6829 3.60877 16.4284 3.79641 16.2407C3.98405 16.0531 4.23854 15.9477 4.50391 15.9477C4.76927 15.9477 5.02377 16.0531 5.21141 16.2407L6.50391 17.5345L9.79641 14.2407C9.98405 14.0531 10.2385 13.9477 10.5039 13.9477C10.7693 13.9477 11.0238 14.0531 11.2114 14.2407C11.399 14.4284 11.5045 14.6829 11.5045 14.9482C11.5045 15.2136 11.399 15.4681 11.2114 15.6557ZM11.2114 7.65574L7.21141 11.6557C7.11853 11.7487 7.00824 11.8225 6.88685 11.8728C6.76545 11.9231 6.63532 11.949 6.50391 11.949C6.37249 11.949 6.24236 11.9231 6.12097 11.8728C5.99957 11.8225 5.88928 11.7487 5.79641 11.6557L3.79641 9.65574C3.7035 9.56283 3.6298 9.45253 3.57951 9.33114C3.52923 9.20975 3.50335 9.07964 3.50335 8.94824C3.50335 8.68288 3.60877 8.42838 3.79641 8.24074C3.98405 8.0531 4.23854 7.94769 4.50391 7.94769C4.76927 7.94769 5.02377 8.0531 5.21141 8.24074L6.50391 9.53449L9.79641 6.24074C9.98405 6.0531 10.2385 5.94769 10.5039 5.94769C10.7693 5.94769 11.0238 6.0531 11.2114 6.24074C11.399 6.42838 11.5045 6.68288 11.5045 6.94824C11.5045 7.21361 11.399 7.4681 11.2114 7.65574ZM20.5039 17.9482H14.5039C14.2387 17.9482 13.9843 17.8429 13.7968 17.6553C13.6093 17.4678 13.5039 17.2135 13.5039 16.9482C13.5039 16.683 13.6093 16.4287 13.7968 16.2411C13.9843 16.0536 14.2387 15.9482 14.5039 15.9482H20.5039C20.7691 15.9482 21.0235 16.0536 21.211 16.2411C21.3986 16.4287 21.5039 16.683 21.5039 16.9482C21.5039 17.2135 21.3986 17.4678 21.211 17.6553C21.0235 17.8429 20.7691 17.9482 20.5039 17.9482ZM20.5039 9.94824H14.5039C14.2387 9.94824 13.9843 9.84289 13.7968 9.65535C13.6093 9.46781 13.5039 9.21346 13.5039 8.94824C13.5039 8.68303 13.6093 8.42867 13.7968 8.24114C13.9843 8.0536 14.2387 7.94824 14.5039 7.94824H20.5039C20.7691 7.94824 21.0235 8.0536 21.211 8.24114C21.3986 8.42867 21.5039 8.68303 21.5039 8.94824C21.5039 9.21346 21.3986 9.46781 21.211 9.65535C21.0235 9.84289 20.7691 9.94824 20.5039 9.94824Z" fill="black" fill-opacity="0.8"/>
</svg>
