<svg width="27" height="23" viewBox="0 0 27 23" fill="none" xmlns="http://www.w3.org/2000/svg">
<path d="M24.6074 0.463379H2.60742C2.07699 0.463379 1.56828 0.674093 1.19321 1.04917C0.818135 1.42424 0.607422 1.93295 0.607422 2.46338V20.4634C0.607422 20.9938 0.818135 21.5025 1.19321 21.8776C1.56828 22.2527 2.07699 22.4634 2.60742 22.4634H24.6074C25.1379 22.4634 25.6466 22.2527 26.0216 21.8776C26.3967 21.5025 26.6074 20.9938 26.6074 20.4634V2.46338C26.6074 1.93295 26.3967 1.42424 26.0216 1.04917C25.6466 0.674093 25.1379 0.463379 24.6074 0.463379ZM24.6074 20.4634H2.60742V2.46338H24.6074V20.4634ZM20.6074 7.46338C20.6074 7.7286 20.5021 7.98295 20.3145 8.17049C20.127 8.35802 19.8726 8.46338 19.6074 8.46338H7.60742C7.34221 8.46338 7.08785 8.35802 6.90032 8.17049C6.71278 7.98295 6.60742 7.7286 6.60742 7.46338C6.60742 7.19816 6.71278 6.94381 6.90032 6.75627C7.08785 6.56874 7.34221 6.46338 7.60742 6.46338H19.6074C19.8726 6.46338 20.127 6.56874 20.3145 6.75627C20.5021 6.94381 20.6074 7.19816 20.6074 7.46338ZM20.6074 11.4634C20.6074 11.7286 20.5021 11.983 20.3145 12.1705C20.127 12.358 19.8726 12.4634 19.6074 12.4634H7.60742C7.34221 12.4634 7.08785 12.358 6.90032 12.1705C6.71278 11.983 6.60742 11.7286 6.60742 11.4634C6.60742 11.1982 6.71278 10.9438 6.90032 10.7563C7.08785 10.5687 7.34221 10.4634 7.60742 10.4634H19.6074C19.8726 10.4634 20.127 10.5687 20.3145 10.7563C20.5021 10.9438 20.6074 11.1982 20.6074 11.4634ZM20.6074 15.4634C20.6074 15.7286 20.5021 15.983 20.3145 16.1705C20.127 16.358 19.8726 16.4634 19.6074 16.4634H7.60742C7.34221 16.4634 7.08785 16.358 6.90032 16.1705C6.71278 15.983 6.60742 15.7286 6.60742 15.4634C6.60742 15.1982 6.71278 14.9438 6.90032 14.7563C7.08785 14.5687 7.34221 14.4634 7.60742 14.4634H19.6074C19.8726 14.4634 20.127 14.5687 20.3145 14.7563C20.5021 14.9438 20.6074 15.1982 20.6074 15.4634Z" fill="black" fill-opacity="0.8"/>
</svg>
