<svg width="78" height="63" viewBox="0 0 78 63" fill="none" xmlns="http://www.w3.org/2000/svg">
<path d="M1.11523 51.4549C9.95279 48.4273 10.063 48.6362 21.2094 42.6305C28.4227 38.7439 35.6354 34.8127 42.473 30.2976C51.3134 24.4601 67.6222 17.0799 64.1619 7.06712C60.803 -2.65209 34.3557 1.82018 28.0137 3.61179C18.6199 6.26554 13.6156 12.2105 15.4682 21.9517C16.7798 28.8481 20.3131 34.9251 23.6015 40.9826C26.4168 46.1687 33.3041 54.593 33.6486 61.0236C33.8471 64.73 26.1058 59.2946 23.3357 56.824C17.6339 51.7386 12.9984 45.9723 8.77014 39.6536C4.15912 32.763 8.95608 51.1599 9.24857 52.4118C9.79877 54.7666 11.2917 61.2112 12.2786 59.0035C14.1739 54.7642 15.2735 50.9186 18.6577 47.468C23.1645 42.8729 22.8198 46.8967 25.781 49.4349C28.0976 51.4205 30.8134 43.4509 33.2233 42.7368C36.1194 41.8787 38.1539 47.2576 39.815 48.7438C42.1057 50.7934 46.1111 48.0476 48.7457 48.2122C52.4424 48.4433 56.2896 46.1556 59.4839 44.4379C64.2972 41.8496 62.4656 40.1428 63.7366 35.5072C64.9534 31.0695 66.5101 38.6698 66.6603 39.3878C67.8951 45.2874 74.0619 46.0577 76.6543 51.2423C79.3792 56.6922 70.3351 54.6619 68.0956 53.475C65.4849 52.0913 65.053 49.5403 66.7667 47.2554C68.9809 44.3031 68.5967 48.9942 69.0525 49.5412" stroke="#7E0554" stroke-linecap="round"/>
</svg>
