<svg width="30" height="30" viewBox="0 0 30 30" fill="none" xmlns="http://www.w3.org/2000/svg">
<path d="M28.0406 11.3533C27.9239 10.9944 27.7035 10.6782 27.4074 10.4443C27.1112 10.2105 26.7525 10.0695 26.3763 10.0392L19.4904 9.48361L16.8318 3.05407C16.688 2.70373 16.4433 2.40405 16.1288 2.19315C15.8142 1.98224 15.4441 1.86963 15.0654 1.86963C14.6867 1.86963 14.3165 1.98224 14.002 2.19315C13.6875 2.40405 13.4428 2.70373 13.299 3.05407L10.6427 9.48245L3.75329 10.0392C3.37652 10.071 3.01754 10.2134 2.72131 10.4483C2.42509 10.6833 2.20479 11.0005 2.08803 11.3601C1.97127 11.7198 1.96323 12.1059 2.06493 12.47C2.16662 12.8342 2.37353 13.1603 2.65972 13.4074L7.91166 17.9392L6.31157 24.7154C6.22208 25.0835 6.24399 25.47 6.37452 25.8256C6.50505 26.1813 6.73831 26.4901 7.04469 26.713C7.35107 26.9358 7.71676 27.0626 8.09533 27.0772C8.4739 27.0919 8.84829 26.9937 9.17096 26.7952L15.0648 23.1678L20.9621 26.7952C21.2849 26.9914 21.6586 27.0876 22.0359 27.0719C22.4133 27.0562 22.7777 26.9291 23.083 26.7068C23.3883 26.4844 23.6211 26.1767 23.7519 25.8223C23.8827 25.468 23.9057 25.0828 23.818 24.7154L22.2121 17.9381L27.4641 13.4062C27.7526 13.1595 27.9614 12.8328 28.064 12.4673C28.1666 12.1018 28.1585 11.7141 28.0406 11.3533ZM26.2503 11.9917L20.5665 16.8935C20.4369 17.0052 20.3405 17.1504 20.2878 17.3132C20.2351 17.476 20.2281 17.6502 20.2677 17.8167L22.0044 25.1461C22.0089 25.1562 22.0093 25.1676 22.0056 25.178C22.0019 25.1885 21.9944 25.1971 21.9845 25.2021C21.9635 25.2184 21.9577 25.2149 21.9402 25.2021L15.5538 21.2748C15.4067 21.1844 15.2375 21.1365 15.0648 21.1365C14.8921 21.1365 14.7229 21.1844 14.5758 21.2748L8.18943 25.2044C8.17192 25.2149 8.16725 25.2184 8.14508 25.2044C8.13523 25.1994 8.12768 25.1908 8.12399 25.1804C8.1203 25.1699 8.12075 25.1585 8.12524 25.1484L9.86188 17.819C9.90146 17.6525 9.89452 17.4784 9.84183 17.3156C9.78914 17.1528 9.69272 17.0076 9.5631 16.8958L3.87934 11.994C3.86533 11.9824 3.85249 11.9719 3.86417 11.9357C3.87584 11.8995 3.88517 11.9042 3.90268 11.9018L11.3628 11.2996C11.5339 11.2849 11.6976 11.2234 11.836 11.1216C11.9744 11.0199 12.082 10.882 12.1471 10.7231L15.0205 3.766C15.0298 3.74616 15.0333 3.73682 15.0613 3.73682C15.0893 3.73682 15.0928 3.74616 15.1021 3.766L17.9825 10.7231C18.0482 10.8821 18.1565 11.0198 18.2956 11.1212C18.4346 11.2225 18.5989 11.2834 18.7703 11.2973L26.2304 11.8995C26.2479 11.8995 26.2584 11.8995 26.2689 11.9334C26.2794 11.9672 26.2689 11.98 26.2503 11.9917Z" fill="#828282"/>
</svg>
