<svg width="24" height="24" viewBox="0 0 24 24" fill="none" xmlns="http://www.w3.org/2000/svg">
<path d="M21.6312 11.5997C21.6282 13.9032 20.7831 16.1261 19.2549 17.8498C17.7268 19.5734 15.6211 20.6788 13.3345 20.9576C13.2836 20.9634 13.232 20.9583 13.1832 20.9427C13.1344 20.9271 13.0895 20.9013 13.0514 20.867C13.0133 20.8328 12.9828 20.7908 12.9621 20.744C12.9414 20.6971 12.9309 20.6464 12.9312 20.5951V13.7747H15.1062C15.2056 13.7749 15.304 13.7547 15.3952 13.7153C15.4865 13.6759 15.5686 13.6182 15.6366 13.5457C15.7046 13.4732 15.757 13.3875 15.7904 13.2939C15.8239 13.2003 15.8378 13.1008 15.8312 13.0017C15.8152 12.8152 15.7292 12.6418 15.5905 12.5162C15.4518 12.3906 15.2707 12.3222 15.0836 12.3247H12.9312V10.1497C12.9312 9.76513 13.084 9.39632 13.3559 9.12439C13.6278 8.85246 13.9966 8.6997 14.3812 8.6997H15.8312C15.9306 8.69991 16.029 8.6797 16.1202 8.6403C16.2115 8.60089 16.2936 8.54315 16.3616 8.47066C16.4296 8.39816 16.482 8.31246 16.5154 8.21888C16.5489 8.1253 16.5628 8.02584 16.5562 7.92667C16.5402 7.73992 16.4539 7.5662 16.3148 7.44056C16.1757 7.31492 15.9942 7.24672 15.8067 7.2497H14.3812C13.6121 7.2497 12.8745 7.55523 12.3306 8.09909C11.7867 8.64294 11.4812 9.38057 11.4812 10.1497V12.3247H9.30621C9.20682 12.3245 9.10845 12.3447 9.0172 12.3841C8.92596 12.4235 8.84379 12.4812 8.7758 12.5537C8.70781 12.6262 8.65545 12.7119 8.62197 12.8055C8.5885 12.8991 8.57462 12.9986 8.58121 13.0977C8.59724 13.2845 8.68351 13.4582 8.8226 13.5838C8.9617 13.7095 9.14327 13.7777 9.33068 13.7747H11.4812V20.5969C11.4815 20.6481 11.471 20.6987 11.4503 20.7455C11.4297 20.7923 11.3994 20.8342 11.3613 20.8685C11.3233 20.9027 11.2785 20.9285 11.2298 20.9442C11.1811 20.9599 11.1297 20.9651 11.0788 20.9594C8.73106 20.6735 6.57619 19.5166 5.04074 17.7177C3.50529 15.9187 2.70117 13.6089 2.78755 11.2454C2.9688 6.3516 6.93274 2.37317 11.8301 2.18285C13.098 2.13374 14.3628 2.34086 15.5489 2.79182C16.7349 3.24278 17.8178 3.92832 18.7328 4.80744C19.6478 5.68656 20.3761 6.74118 20.8741 7.90824C21.3721 9.07531 21.6296 10.3308 21.6312 11.5997Z" fill="white"/>
</svg>
