<svg width="24" height="24" viewBox="0 0 24 24" fill="none" xmlns="http://www.w3.org/2000/svg">
<path d="M11.7961 7.2498C10.9357 7.2498 10.0947 7.50493 9.37936 7.98291C8.66401 8.4609 8.10646 9.14027 7.77722 9.93513C7.44798 10.73 7.36183 11.6046 7.52968 12.4484C7.69752 13.2923 8.11182 14.0674 8.72018 14.6757C9.32854 15.2841 10.1036 15.6984 10.9475 15.8662C11.7913 16.0341 12.6659 15.9479 13.4608 15.6187C14.2556 15.2894 14.935 14.7319 15.413 14.0165C15.891 13.3012 16.1461 12.4602 16.1461 11.5998C16.1449 10.4465 15.6862 9.34074 14.8707 8.52522C14.0552 7.70969 12.9494 7.251 11.7961 7.2498ZM11.7961 14.4998C11.2225 14.4998 10.6618 14.3297 10.1849 14.0111C9.70804 13.6924 9.33634 13.2395 9.11684 12.7096C8.89735 12.1797 8.83992 11.5966 8.95182 11.034C9.06371 10.4715 9.33991 9.95477 9.74548 9.5492C10.1511 9.14362 10.6678 8.86742 11.2303 8.75553C11.7929 8.64363 12.376 8.70106 12.9059 8.92055C13.4358 9.14005 13.8887 9.51175 14.2074 9.98865C14.526 10.4656 14.6961 11.0262 14.6961 11.5998C14.6961 12.3689 14.3906 13.1066 13.8467 13.6504C13.3028 14.1943 12.5652 14.4998 11.7961 14.4998ZM16.1461 2.1748H7.44609C6.10056 2.17624 4.81055 2.71139 3.85912 3.66283C2.90768 4.61426 2.37253 5.90427 2.37109 7.2498V15.9498C2.37253 17.2953 2.90768 18.5853 3.85912 19.5368C4.81055 20.4882 6.10056 21.0234 7.44609 21.0248H16.1461C17.4916 21.0234 18.7816 20.4882 19.7331 19.5368C20.6845 18.5853 21.2197 17.2953 21.2211 15.9498V7.2498C21.2197 5.90427 20.6845 4.61426 19.7331 3.66283C18.7816 2.71139 17.4916 2.17624 16.1461 2.1748ZM19.7711 15.9498C19.7711 16.9112 19.3892 17.8332 18.7094 18.5131C18.0295 19.1929 17.1075 19.5748 16.1461 19.5748H7.44609C6.48468 19.5748 5.56265 19.1929 4.88283 18.5131C4.20301 17.8332 3.82109 16.9112 3.82109 15.9498V7.2498C3.82109 6.28839 4.20301 5.36636 4.88283 4.68654C5.56265 4.00672 6.48468 3.6248 7.44609 3.6248H16.1461C17.1075 3.6248 18.0295 4.00672 18.7094 4.68654C19.3892 5.36636 19.7711 6.28839 19.7711 7.2498V15.9498ZM17.5961 6.8873C17.5961 7.10239 17.5323 7.31265 17.4128 7.49149C17.2933 7.67033 17.1235 7.80971 16.9248 7.89202C16.726 7.97433 16.5074 7.99587 16.2964 7.95391C16.0855 7.91195 15.8917 7.80837 15.7396 7.65628C15.5875 7.50419 15.484 7.31042 15.442 7.09947C15.4 6.88851 15.4216 6.66985 15.5039 6.47114C15.5862 6.27242 15.7256 6.10258 15.9044 5.98308C16.0833 5.86359 16.2935 5.7998 16.5086 5.7998C16.797 5.7998 17.0736 5.91438 17.2776 6.11833C17.4815 6.32227 17.5961 6.59888 17.5961 6.8873Z" fill="white"/>
</svg>
