<svg width="24" height="24" viewBox="0 0 24 24" fill="none" xmlns="http://www.w3.org/2000/svg">
<path d="M19.9703 2.1748H4.02031C3.63575 2.1748 3.26694 2.32757 2.99501 2.5995C2.72308 2.87143 2.57031 3.24024 2.57031 3.6248V19.5748C2.57031 19.9594 2.72308 20.3282 2.99501 20.6001C3.26694 20.872 3.63575 21.0248 4.02031 21.0248H19.9703C20.3549 21.0248 20.7237 20.872 20.9956 20.6001C21.2675 20.3282 21.4203 19.9594 21.4203 19.5748V3.6248C21.4203 3.24024 21.2675 2.87143 20.9956 2.5995C20.7237 2.32757 20.3549 2.1748 19.9703 2.1748ZM9.09531 15.9498C9.09531 16.1421 9.01893 16.3265 8.88297 16.4625C8.747 16.5984 8.56259 16.6748 8.37031 16.6748C8.17803 16.6748 7.99362 16.5984 7.85766 16.4625C7.7217 16.3265 7.64531 16.1421 7.64531 15.9498V10.1498C7.64531 9.95752 7.7217 9.77312 7.85766 9.63715C7.99362 9.50119 8.17803 9.4248 8.37031 9.4248C8.56259 9.4248 8.747 9.50119 8.88297 9.63715C9.01893 9.77312 9.09531 9.95752 9.09531 10.1498V15.9498ZM8.37031 8.6998C8.15523 8.6998 7.94497 8.63602 7.76613 8.51653C7.58729 8.39703 7.4479 8.22719 7.36559 8.02847C7.28328 7.82976 7.26175 7.6111 7.30371 7.40014C7.34567 7.18919 7.44924 6.99542 7.60133 6.84333C7.75342 6.69124 7.9472 6.58766 8.15815 6.5457C8.36911 6.50374 8.58777 6.52528 8.78648 6.60759C8.9852 6.6899 9.15504 6.82928 9.27454 7.00812C9.39403 7.18696 9.45781 7.39722 9.45781 7.6123C9.45781 7.90073 9.34324 8.17734 9.13929 8.38128C8.93535 8.58523 8.65874 8.6998 8.37031 8.6998ZM17.0703 15.9498C17.0703 16.1421 16.9939 16.3265 16.858 16.4625C16.722 16.5984 16.5376 16.6748 16.3453 16.6748C16.153 16.6748 15.9686 16.5984 15.8327 16.4625C15.6967 16.3265 15.6203 16.1421 15.6203 15.9498V12.6873C15.6203 12.2066 15.4294 11.7456 15.0894 11.4057C14.7495 11.0658 14.2885 10.8748 13.8078 10.8748C13.3271 10.8748 12.8661 11.0658 12.5262 11.4057C12.1863 11.7456 11.9953 12.2066 11.9953 12.6873V15.9498C11.9953 16.1421 11.9189 16.3265 11.783 16.4625C11.647 16.5984 11.4626 16.6748 11.2703 16.6748C11.078 16.6748 10.8936 16.5984 10.7577 16.4625C10.6217 16.3265 10.5453 16.1421 10.5453 15.9498V10.1498C10.5462 9.97222 10.6123 9.80114 10.7309 9.66902C10.8496 9.5369 11.0126 9.45293 11.1891 9.43304C11.3656 9.41315 11.5432 9.45871 11.6883 9.5611C11.8334 9.66349 11.9359 9.81557 11.9763 9.98849C12.4667 9.65578 13.0385 9.46296 13.6303 9.43071C14.2221 9.39847 14.8115 9.52803 15.3352 9.80548C15.8589 10.0829 16.2971 10.4978 16.6028 11.0055C16.9085 11.5132 17.0701 12.0947 17.0703 12.6873V15.9498Z" fill="white"/>
</svg>
