<svg width="24" height="24" viewBox="0 0 24 24" fill="none" xmlns="http://www.w3.org/2000/svg">
<path d="M19.4637 19.1856L13.7905 10.2699L19.3884 4.11198C19.515 3.96926 19.5803 3.7824 19.57 3.5919C19.5598 3.4014 19.4749 3.22261 19.3337 3.09431C19.1925 2.966 19.0064 2.89852 18.8158 2.90648C18.6252 2.91444 18.4454 2.99722 18.3154 3.13685L12.9831 9.0021L9.31366 3.23563C9.24823 3.13264 9.15786 3.04783 9.05093 2.98906C8.94399 2.93029 8.82396 2.89945 8.70194 2.89941H4.35194C4.22195 2.89935 4.09433 2.93424 3.98245 3.00042C3.87057 3.06661 3.77854 3.16166 3.716 3.27562C3.65347 3.38958 3.62272 3.51826 3.62698 3.64818C3.63124 3.7781 3.67035 3.90448 3.74022 4.0141L9.41335 12.9289L3.81544 19.0914C3.75007 19.1616 3.69929 19.2441 3.66603 19.3341C3.63278 19.4241 3.61772 19.5198 3.62173 19.6156C3.62573 19.7115 3.64872 19.8056 3.68936 19.8925C3.73001 19.9794 3.7875 20.0574 3.8585 20.1219C3.9295 20.1864 4.0126 20.2362 4.10298 20.2684C4.19337 20.3006 4.28924 20.3145 4.38504 20.3093C4.48084 20.3042 4.57467 20.2801 4.66108 20.2384C4.74749 20.1967 4.82477 20.1383 4.88844 20.0665L10.2208 14.2013L13.8902 19.9677C13.9562 20.0699 14.0468 20.1538 14.1537 20.2118C14.2606 20.2697 14.3803 20.2999 14.5019 20.2994H18.8519C18.9818 20.2994 19.1092 20.2645 19.221 20.1983C19.3327 20.1322 19.4247 20.0372 19.4872 19.9234C19.5497 19.8096 19.5805 19.6811 19.5763 19.5513C19.5722 19.4215 19.5333 19.2952 19.4637 19.1856ZM14.8998 18.8494L5.67235 4.34941H8.30047L17.5315 18.8494H14.8998Z" fill="white"/>
</svg>
